<svg width="402" height="358" viewBox="0 0 402 358" fill="none" xmlns="http://www.w3.org/2000/svg">
<g clip-path="url(#clip0_450_1255)">
<path d="M123.076 268.302C111.197 259.853 94.7153 262.624 86.2687 274.488C77.8216 286.353 80.6102 302.816 92.4964 311.254C104.375 319.687 120.843 316.911 129.285 305.054C137.726 293.197 134.947 276.745 123.076 268.302Z" fill="#FFBB91"/>
<g style="mix-blend-mode:multiply">
<path d="M106.483 295.066C105.759 294.538 105.19 294.244 104.296 294.054C102.613 293.696 100.783 294.211 99.6313 295.518C98.8553 296.389 98.4664 297.538 98.5531 298.702C98.6545 300.071 99.3183 301.146 100.335 302.028C101.495 302.928 102.768 303.335 104.242 303.179C105.478 303.045 106.612 302.431 107.398 301.47C108.112 300.58 108.446 299.445 108.328 298.31C108.185 297.006 107.501 295.879 106.483 295.066Z" fill="#F5CAAE"/>
<path d="M95.72 278.827C94.9385 278.226 94.1337 277.965 93.1431 278.002C89.2326 278.145 86.4275 283.686 89.5391 286.494C91.8688 288.322 94.8056 287.132 96.2614 284.829C97.4478 282.952 97.5137 280.346 95.72 278.827Z" fill="#F5CAAE"/>
<path d="M116.852 277.087C115.8 276.178 114.453 275.681 113.062 275.688C112.74 275.693 112.434 275.71 112.116 275.763C109.717 276.165 108 278.432 108.914 280.827C109.211 281.603 109.589 282.087 110.186 282.665L110.21 282.689C111.167 283.612 112.796 284.151 114.111 284.113C118.144 283.996 119.959 279.954 116.852 277.087Z" fill="#F5CAAE"/>
<path d="M126.377 293.959C124.263 292.176 121.888 293.735 120.725 295.774C119.704 297.563 119.429 300.489 121.072 302.008C121.638 302.495 122.268 302.804 123.034 302.777C126.82 302.641 129.043 296.523 126.377 293.959Z" fill="#F5CAAE"/>
<path d="M109.132 266.77C108.291 266.122 107.557 265.922 106.476 265.838C104.508 265.715 102.223 266.198 100.676 267.473C99.8628 268.142 99.4366 269.093 100.244 269.971C103.337 272.606 111.572 269.425 109.132 266.77Z" fill="#F5CAAE"/>
<path d="M86.9003 294.044C85.0884 292.583 84.3001 294.394 84.3791 296.021C84.4858 298.223 85.4161 300.785 87.0421 302.313C88.9787 303.853 89.7251 302.075 89.6233 300.312C89.4953 298.103 88.5628 295.563 86.9003 294.044Z" fill="#F5CAAE"/>
<path d="M114.574 311.074C111.746 308.863 103.275 311.082 105.49 313.37C108.125 315.599 116.81 313.474 114.574 311.074Z" fill="#F5CAAE"/>
<path d="M127.84 275.967C126.45 274.672 125.255 275.278 125.35 277.124C125.469 279.422 126.679 282.024 128.331 283.623C128.741 283.962 129.234 284.358 129.794 284.366C130.687 284.379 130.901 283.253 130.869 282.552C130.761 280.19 129.532 277.605 127.84 275.967Z" fill="#F5CAAE"/>
</g>
<path d="M98.9366 248.21C97.0768 243.297 94.1891 240.789 90.4475 237.435L83.737 231.435L77.041 225.433C74.92 223.525 72.9431 221.584 70.4895 220.101C65.333 216.987 59.146 216.057 53.2997 217.515C50.0877 218.322 47.0878 219.812 44.5051 221.883C42.523 223.494 40.3771 226.073 38.6229 228.024L30.1234 237.489L20.8163 247.856C18.6649 250.249 15.6496 253.336 14.0664 256.002C11.3142 260.583 10.2787 265.991 11.1442 271.263C11.5183 273.516 12.4146 276.606 13.0003 278.891C13.702 281.489 14.3142 284.126 15.024 286.717C15.5791 288.745 15.7629 290.03 15.8544 292.126C16.4684 292.734 17.388 293.508 18.0469 294.096L22.0986 297.722C24.6315 299.994 27.6069 302.809 30.1884 304.945C33.0685 304.644 34.7744 305.039 37.6011 305.449L45.347 306.571C50.9264 307.381 54.8246 308.06 60.3838 305.997C62.9622 305.056 65.3478 303.655 67.4241 301.862C69.1896 300.328 71.1245 298.028 72.7099 296.257L80.1164 288.005L90.1572 276.824C91.7886 275.009 94.1828 272.498 95.6583 270.623C96.7998 269.18 97.7646 267.606 98.5321 265.934C101.146 260.147 101.165 254.101 98.9366 248.21Z" fill="#9FE0FF"/>
<path d="M98.9365 248.21C97.0767 243.297 94.1889 240.789 90.4473 237.435L83.7369 231.435L77.0411 225.433C74.9201 223.525 72.9431 221.584 70.4895 220.101C65.333 216.987 59.1459 216.057 53.2997 217.515C50.0877 218.322 47.0877 219.811 44.5051 221.883L44.3188 222.037C42.3893 223.654 40.3224 226.134 38.623 228.025L20.8164 247.856C18.665 250.248 15.6496 253.336 14.0664 256.002C11.3142 260.583 10.2786 265.991 11.1441 271.263L11.2202 271.695C11.6291 273.899 12.4513 276.749 13.0003 278.891L13.2596 279.867C13.8566 282.147 14.4028 284.45 15.0238 286.717L15.1238 287.089C15.6017 288.908 15.7684 290.161 15.8542 292.126L16.0979 292.361C16.6943 292.925 17.4703 293.581 18.0469 294.096L22.0987 297.721C24.4732 299.852 27.2366 302.459 29.6999 304.537L30.1884 304.945C33.0685 304.645 34.7745 305.039 37.6012 305.449L45.347 306.57C50.9263 307.381 54.8247 308.06 60.3839 305.997C62.8818 305.086 65.1987 303.742 67.2287 302.029L67.424 301.862C69.1893 300.327 71.1245 298.028 72.7099 296.257L90.1573 276.824C91.7887 275.009 94.183 272.498 95.6585 270.623C96.7999 269.18 97.7646 267.605 98.5321 265.933C101.146 260.147 101.165 254.101 98.9365 248.21ZM86.3151 242.046C90.1412 245.476 91.8839 247.076 93.1413 250.398L93.1409 250.398C94.8305 254.864 94.7745 259.196 92.8907 263.375C92.3304 264.591 91.6273 265.737 90.7964 266.788L90.7922 266.793L90.7877 266.799C89.4775 268.463 87.4042 270.624 85.5466 272.691L85.5449 272.693L75.5043 283.873L75.503 283.875L68.0965 292.126L68.0935 292.13L68.0907 292.133C66.2681 294.17 64.7366 295.995 63.3567 297.194C61.8523 298.49 60.1251 299.503 58.2587 300.184L58.2419 300.19L58.2255 300.196C54.5771 301.551 52.2375 301.313 47.2692 300.596L46.2394 300.447L46.2363 300.446L38.4905 299.324L38.4897 299.324C36.6634 299.06 34.7618 298.68 32.3601 298.656C30.7203 297.216 28.9992 295.619 27.261 294.041L26.2392 293.118L26.236 293.115L26.233 293.113L22.1815 289.487L22.1783 289.484L22.1752 289.482C22.0571 289.376 21.9437 289.277 21.8358 289.182C21.6756 287.869 21.4207 286.62 21.0003 285.085C20.6645 283.859 20.3482 282.61 20.0174 281.296C19.6944 280.014 19.3561 278.664 18.9926 277.317C18.3204 274.698 17.5737 272.153 17.2584 270.262C16.6302 266.435 17.3817 262.511 19.3792 259.185L19.3872 259.172L19.3949 259.159C20.5689 257.182 22.9083 254.79 25.4256 251.991L25.4273 251.989L25.4293 251.987L43.235 232.156C45.2856 229.874 46.9167 227.906 48.3979 226.697C50.2791 225.192 52.4628 224.108 54.8012 223.519C59.0467 222.46 63.5392 223.135 67.2834 225.397C69.0928 226.49 70.4941 227.872 72.8954 230.032L72.899 230.035L72.9024 230.038L79.5985 236.04L79.6046 236.046L86.3151 242.046Z" fill="#5BBFEF"/>
<path d="M29.0115 302.894C28.6504 302.403 26.4027 300.486 25.7714 299.919L17.2034 292.26C15.7756 297.046 12.205 300.836 8.96774 304.434L3.7224 310.272L-0.80106 315.316C-1.56508 316.168 -2.32605 317.032 -3.11392 317.869C-3.47299 318.384 -4.47792 318.352 -4.85973 318.656C-5.79915 319.404 -6.77216 320.616 -7.56882 321.506C-8.19994 322.199 -9.03572 323.223 -8.11866 324.11C-5.87527 326.279 -3.45286 328.297 -1.1564 330.412C0.39495 331.842 1.14129 332.445 2.72565 330.521C3.05203 330.051 5.09632 328.073 5.18122 327.588C5.52216 325.645 5.91374 325.61 7.25729 324.114L11.1303 319.807L16.54 313.779C19.7934 310.148 22.73 306.436 26.974 303.93C27.5379 303.596 28.4125 303.043 29.0115 302.894Z" fill="#5BBFEF"/>
<path d="M31.509 301.064C31.2262 300.679 30.8057 300.277 30.5763 300.059C30.2698 299.768 29.9071 299.44 29.5558 299.127C28.7347 298.395 28.2263 297.963 27.8423 297.618L27.8398 297.616L27.8376 297.614L15.6294 286.7L14.2344 291.376C13.0467 295.358 10.0469 298.606 6.6637 302.366L6.66215 302.368L1.41681 308.205L1.41492 308.207L-3.10851 313.251C-3.79306 314.015 -4.42505 314.731 -5.07299 315.431C-5.16141 315.454 -5.27698 315.485 -5.39872 315.523C-5.54432 315.569 -5.74588 315.637 -5.96663 315.737C-6.18398 315.835 -6.48352 315.992 -6.79171 316.237C-8.00238 317.202 -9.27899 318.774 -9.87871 319.444C-10.1813 319.776 -10.919 320.586 -11.3187 321.633C-11.5457 322.227 -11.7222 323.038 -11.5595 323.962C-11.3909 324.92 -10.9065 325.721 -10.2728 326.333C-8.03837 328.494 -5.35424 330.754 -3.25668 332.686C-2.89182 333.022 -2.424 333.453 -1.94153 333.804C-1.46184 334.153 -0.699224 334.628 0.300261 334.782C2.66632 335.146 4.25602 333.534 5.11862 332.486L5.19859 332.389L5.2385 332.331C5.22819 332.348 5.2927 332.269 5.51395 332.029C5.70036 331.827 6.06458 331.438 6.32942 331.149C6.61864 330.833 6.95136 330.462 7.22863 330.115C7.3651 329.944 7.52946 329.729 7.67839 329.495C7.75989 329.367 8.10736 328.836 8.23266 328.122L8.28215 327.859C8.32814 327.635 8.36318 327.519 8.38295 327.463C8.38458 327.458 8.38615 327.454 8.38743 327.451C8.41056 327.42 8.47344 327.343 8.66543 327.14C8.86056 326.934 9.1915 326.594 9.56343 326.179L13.4352 321.874L13.4372 321.872L18.847 315.845L18.8488 315.842C22.2845 312.007 24.8299 308.79 28.551 306.593C28.9012 306.386 29.1625 306.223 29.4646 306.058C29.6029 305.983 29.7079 305.931 29.7819 305.898C29.7978 305.891 29.8104 305.886 29.8194 305.882L34.2428 304.784L31.509 301.064ZM23.7928 302.301C19.8622 305.049 16.9476 308.685 14.234 311.714L14.2336 311.714L8.82614 317.739L8.82569 317.739L4.95254 322.046L4.95112 322.048C4.65141 322.382 4.42982 322.607 4.16303 322.889C3.92379 323.142 3.6023 323.487 3.30838 323.905C2.75119 324.697 2.45686 325.511 2.25646 326.412C2.12573 326.566 1.95762 326.754 1.75858 326.971C1.46096 327.296 1.24774 327.521 0.956405 327.837C0.904956 327.893 0.852934 327.95 0.80126 328.007C-1.19282 326.176 -2.97581 324.672 -4.76951 323.014C-4.17184 322.331 -3.69449 321.769 -3.24077 321.347C-3.21267 321.339 -3.18418 321.332 -3.15711 321.324C-2.94119 321.265 -2.53814 321.15 -2.11472 320.941C-1.73598 320.755 -1.21124 320.432 -0.757495 319.882C0.0294786 319.041 0.797292 318.171 1.5066 317.38L11.2733 306.501C13.5251 303.998 16.3337 301.019 18.3375 297.426L23.701 302.22C23.729 302.246 23.76 302.272 23.7928 302.301Z" fill="#5BBFEF"/>
<path d="M344.239 215.427C338.986 215.324 335.584 217.07 331.078 219.294L323.011 223.288L314.947 227.268C312.387 228.526 309.849 229.638 307.56 231.363C302.749 234.99 299.582 240.385 298.759 246.354C298.312 249.636 298.578 252.975 299.538 256.143C300.295 258.582 301.89 261.534 303.048 263.889L308.668 275.301L314.825 287.799C316.244 290.686 317.987 294.635 319.871 297.096C323.099 301.356 327.732 304.331 332.948 305.491C335.178 305.982 338.379 306.301 340.718 306.608C343.39 306.924 346.066 307.337 348.735 307.644C350.824 307.883 352.085 308.191 354.064 308.887C354.858 308.543 355.918 307.978 356.709 307.585L361.582 305.175C364.635 303.67 368.355 301.957 371.299 300.356C372.092 297.571 373.094 296.135 374.526 293.664L378.451 286.892C381.281 282.016 383.362 278.651 383.517 272.723C383.604 269.98 383.192 267.244 382.301 264.649C381.534 262.44 380.12 259.788 379.066 257.657L374.166 247.71L367.527 234.229C366.45 232.039 365.01 228.882 363.82 226.814C362.906 225.218 361.803 223.736 360.537 222.401C356.14 217.82 350.536 215.552 344.239 215.427Z" fill="#9FE0FF"/>
<path d="M344.239 215.427C338.986 215.324 335.584 217.07 331.078 219.294L323.011 223.288L314.947 227.268C312.387 228.526 309.849 229.638 307.56 231.363C302.749 234.99 299.582 240.386 298.759 246.355C298.312 249.636 298.578 252.975 299.538 256.143L299.612 256.373C300.395 258.766 301.926 261.608 303.049 263.889L314.825 287.799C316.244 290.686 317.987 294.635 319.871 297.096C323.099 301.356 327.732 304.331 332.948 305.491L333.377 305.581C335.575 306.022 338.525 306.32 340.718 306.608L341.72 306.731C344.059 307.025 346.399 307.376 348.735 307.644L349.118 307.689C350.984 307.923 352.208 308.235 354.064 308.887L354.373 308.748C355.119 308.405 356.017 307.929 356.709 307.585L361.582 305.175C364.444 303.764 367.892 302.17 370.738 300.657L371.299 300.356C372.092 297.571 373.094 296.135 374.526 293.664L378.451 286.892C381.281 282.016 383.362 278.651 383.517 272.723C383.601 270.065 383.217 267.415 382.383 264.893L382.301 264.65C381.534 262.44 380.12 259.788 379.067 257.657L367.527 234.229C366.45 232.039 365.01 228.881 363.82 226.814C362.906 225.217 361.803 223.736 360.537 222.401C356.14 217.82 350.536 215.552 344.239 215.427ZM333.818 224.846C338.426 222.572 340.56 221.55 344.112 221.62L344.111 221.62C348.885 221.715 352.885 223.38 356.062 226.684C356.983 227.657 357.784 228.736 358.45 229.899L358.454 229.905L358.457 229.911C359.514 231.746 360.747 234.475 361.974 236.969L361.975 236.971L368.614 250.453L368.614 250.454L373.515 260.401L373.517 260.405L373.519 260.408C374.731 262.858 375.855 264.959 376.454 266.686C377.097 268.565 377.394 270.545 377.331 272.531L377.33 272.549L377.33 272.567C377.229 276.457 376.137 278.54 373.622 282.884L373.1 283.784L373.098 283.787L369.173 290.558L369.173 290.559C368.247 292.155 367.187 293.779 366.27 295.999C364.323 296.985 362.2 297.987 360.088 299.013L358.852 299.618L358.848 299.62L358.844 299.622L353.971 302.032L353.967 302.034L353.963 302.036C353.821 302.106 353.687 302.174 353.559 302.239C352.281 301.899 351.026 301.671 349.445 301.489C348.182 301.344 346.905 301.173 345.563 300.991C344.253 300.813 342.874 300.625 341.489 300.46C338.808 300.109 336.167 299.855 334.295 299.443C330.509 298.601 327.147 296.443 324.804 293.351L324.795 293.338L324.786 293.326C323.388 291.501 322.039 288.439 320.379 285.061L320.377 285.058L320.376 285.056L308.6 261.147C307.246 258.394 306.026 256.147 305.456 254.322C304.759 252.016 304.566 249.586 304.89 247.196C305.488 242.862 307.788 238.944 311.28 236.31C312.969 235.038 314.774 234.252 317.672 232.828L317.676 232.825L317.68 232.824L325.744 228.844L325.751 228.84L333.818 224.846Z" fill="#5BBFEF"/>
<path d="M368.957 300.685C368.367 300.837 365.751 302.209 364.99 302.584L354.691 307.685C358.601 310.792 360.79 315.517 362.924 319.861L366.389 326.903L369.386 332.979C369.892 334.005 370.411 335.033 370.894 336.076C371.238 336.601 370.835 337.522 370.975 337.989C371.32 339.14 372.082 340.494 372.612 341.565C373.019 342.408 373.659 343.566 374.823 343.045C377.672 341.77 380.446 340.273 383.264 338.929C385.169 338.022 386.007 337.554 384.811 335.367C384.497 334.889 383.422 332.255 383.003 331.996C381.327 330.956 381.44 330.579 380.552 328.775L377.996 323.577L374.416 316.312C372.257 311.941 369.906 307.834 369.159 302.961C369.06 302.314 368.872 301.296 368.957 300.685Z" fill="#5BBFEF"/>
<path d="M368.188 297.685C367.726 297.804 367.196 298.045 366.909 298.177C366.525 298.353 366.085 298.567 365.663 298.777C364.678 299.266 364.088 299.577 363.625 299.805L363.622 299.807L363.619 299.808L348.945 307.075L352.766 310.111C356.019 312.696 357.916 316.689 360.146 321.229L360.147 321.231L363.612 328.273L363.614 328.275L366.611 334.352C367.064 335.271 367.494 336.124 367.902 336.986C367.891 337.077 367.877 337.196 367.867 337.323C367.855 337.475 367.843 337.688 367.853 337.93C367.864 338.168 367.897 338.504 368.011 338.882C368.455 340.364 369.439 342.135 369.838 342.941C370.033 343.345 370.51 344.331 371.333 345.092C371.8 345.524 372.486 345.99 373.405 346.183C374.357 346.383 375.28 346.231 376.085 345.871C378.922 344.602 382.019 342.952 384.593 341.725C385.041 341.511 385.615 341.238 386.12 340.921C386.622 340.605 387.348 340.074 387.863 339.204C389.082 337.144 388.177 335.068 387.526 333.877L387.465 333.767L387.427 333.708C387.438 333.724 387.389 333.635 387.248 333.34C387.13 333.092 386.905 332.609 386.735 332.256C386.55 331.87 386.329 331.423 386.111 331.036C386.003 330.846 385.864 330.613 385.703 330.388C385.614 330.265 385.251 329.744 384.635 329.362L384.409 329.219C384.218 329.092 384.123 329.017 384.079 328.977C384.075 328.974 384.072 328.971 384.069 328.969C384.05 328.936 384.001 328.849 383.884 328.595C383.766 328.337 383.573 327.903 383.327 327.404L380.773 322.208L380.772 322.205L377.192 314.94L377.191 314.937C374.91 310.321 372.873 306.761 372.218 302.489C372.156 302.087 372.103 301.784 372.062 301.442C372.044 301.286 372.034 301.169 372.031 301.088C372.031 301.071 372.031 301.057 372.031 301.047L372.659 296.533L368.188 297.685ZM366.464 305.307C367.55 309.978 369.84 314.037 371.641 317.684L371.641 317.684L375.22 324.946L375.219 324.946L377.775 330.145L377.776 330.147C377.974 330.549 378.101 330.839 378.263 331.191C378.408 331.507 378.609 331.934 378.887 332.362C379.415 333.175 380.061 333.751 380.823 334.272C380.917 334.451 381.029 334.677 381.157 334.943C381.347 335.34 381.476 335.621 381.661 336.009C381.694 336.078 381.727 336.147 381.761 336.217C379.32 337.386 377.26 338.481 375.053 339.528C374.642 338.719 374.298 338.067 374.075 337.488C374.078 337.46 374.082 337.43 374.085 337.402C374.111 337.18 374.154 336.763 374.118 336.292C374.086 335.871 373.982 335.264 373.64 334.638C373.153 333.595 372.631 332.558 372.161 331.605L365.7 318.49C364.216 315.469 362.497 311.753 359.908 308.555L366.355 305.363C366.388 305.346 366.425 305.327 366.464 305.307Z" fill="#5BBFEF"/>
<path d="M385.385 223.333C371.198 219.987 356.977 228.766 353.626 242.94C350.276 257.114 359.065 271.311 373.255 274.645C387.437 277.977 401.643 269.198 404.992 255.033C408.34 240.868 399.563 226.678 385.385 223.333Z" fill="#FFBB91"/>
<g style="mix-blend-mode:multiply">
<path d="M380.107 254.379C379.237 254.162 378.6 254.104 377.7 254.265C376.006 254.568 374.505 255.735 373.931 257.38C373.541 258.479 373.614 259.69 374.133 260.735C374.743 261.965 375.763 262.711 377.037 263.144C378.451 263.54 379.783 263.437 381.09 262.737C382.184 262.147 383.003 261.151 383.369 259.964C383.695 258.871 383.576 257.694 383.039 256.688C382.414 255.534 381.356 254.747 380.107 254.379Z" fill="#F5CAAE"/>
<path d="M364.016 243.395C363.065 243.133 362.222 243.195 361.318 243.602C357.75 245.209 357.241 251.399 361.182 252.827C364.029 253.642 366.3 251.432 366.78 248.75C367.171 246.564 366.25 244.126 364.016 243.395Z" fill="#F5CAAE"/>
<path d="M382.933 233.816C381.616 233.372 380.181 233.419 378.895 233.95C378.598 234.075 378.321 234.207 378.047 234.376C375.977 235.652 375.241 238.4 376.991 240.273C377.558 240.88 378.091 241.186 378.862 241.496L378.893 241.509C380.127 242.003 381.839 241.889 383.043 241.357C386.735 239.729 386.892 235.301 382.933 233.816Z" fill="#F5CAAE"/>
<path d="M398.116 245.853C395.485 244.998 393.873 247.338 393.565 249.665C393.294 251.706 394.142 254.521 396.237 255.308C396.945 255.546 397.645 255.594 398.343 255.28C401.799 253.727 401.551 247.222 398.116 245.853Z" fill="#F5CAAE"/>
<path d="M371.893 227.172C370.87 226.889 370.114 226.98 369.081 227.31C367.213 227.938 365.278 229.247 364.325 231.011C363.825 231.937 363.789 232.978 364.867 233.488C368.726 234.762 375.154 228.711 371.893 227.172Z" fill="#F5CAAE"/>
<path d="M361.584 260.814C359.355 260.145 359.308 262.119 359.994 263.596C360.923 265.595 362.751 267.617 364.833 268.42C367.207 269.116 367.228 267.188 366.469 265.594C365.518 263.595 363.697 261.595 361.584 260.814Z" fill="#F5CAAE"/>
<path d="M393.636 266.155C390.183 265.173 383.173 270.422 386.088 271.706C389.369 272.777 396.612 267.534 393.636 266.155Z" fill="#F5CAAE"/>
<path d="M392.687 228.636C390.912 227.961 390.033 228.973 390.818 230.647C391.795 232.731 393.896 234.684 396.029 235.543C396.536 235.702 397.142 235.883 397.663 235.679C398.495 235.354 398.269 234.231 397.975 233.593C396.985 231.447 394.872 229.516 392.687 228.636Z" fill="#F5CAAE"/>
</g>
<path d="M247.075 205.302C235.197 196.853 218.715 199.624 210.269 211.488C201.822 223.353 204.61 239.816 216.496 248.254C228.375 256.687 244.843 253.911 253.284 242.054C261.726 230.197 258.947 213.745 247.075 205.302Z" fill="#FFBB91"/>
<g style="mix-blend-mode:multiply">
<path d="M230.483 232.066C229.759 231.538 229.19 231.244 228.296 231.054C226.613 230.696 224.783 231.211 223.631 232.518C222.855 233.389 222.466 234.538 222.553 235.702C222.654 237.071 223.318 238.146 224.335 239.028C225.495 239.928 226.768 240.335 228.242 240.179C229.478 240.045 230.612 239.431 231.398 238.47C232.112 237.58 232.446 236.445 232.328 235.31C232.184 234.006 231.501 232.879 230.483 232.066Z" fill="#F5CAAE"/>
<path d="M219.72 215.827C218.938 215.226 218.134 214.965 217.143 215.002C213.233 215.145 210.427 220.686 213.539 223.494C215.869 225.322 218.806 224.132 220.261 221.829C221.448 219.952 221.514 217.346 219.72 215.827Z" fill="#F5CAAE"/>
<path d="M240.852 214.087C239.8 213.178 238.453 212.681 237.062 212.688C236.74 212.693 236.434 212.71 236.116 212.763C233.717 213.165 232 215.432 232.914 217.827C233.211 218.603 233.589 219.087 234.186 219.665L234.21 219.689C235.167 220.612 236.796 221.151 238.111 221.113C242.144 220.996 243.959 216.954 240.852 214.087Z" fill="#F5CAAE"/>
<path d="M250.377 230.959C248.263 229.176 245.888 230.735 244.725 232.774C243.704 234.563 243.429 237.489 245.072 239.008C245.638 239.495 246.268 239.804 247.034 239.777C250.82 239.641 253.043 233.523 250.377 230.959Z" fill="#F5CAAE"/>
<path d="M233.132 203.77C232.291 203.122 231.557 202.922 230.476 202.838C228.508 202.715 226.223 203.198 224.676 204.473C223.863 205.142 223.437 206.093 224.244 206.971C227.337 209.606 235.572 206.425 233.132 203.77Z" fill="#F5CAAE"/>
<path d="M210.9 231.044C209.088 229.583 208.3 231.394 208.379 233.021C208.486 235.223 209.416 237.785 211.042 239.313C212.979 240.853 213.725 239.075 213.623 237.312C213.495 235.103 212.563 232.563 210.9 231.044Z" fill="#F5CAAE"/>
<path d="M238.574 248.074C235.746 245.863 227.275 248.082 229.49 250.37C232.125 252.599 240.81 250.474 238.574 248.074Z" fill="#F5CAAE"/>
<path d="M251.84 212.967C250.45 211.672 249.255 212.278 249.35 214.124C249.469 216.422 250.679 219.024 252.331 220.623C252.741 220.962 253.234 221.358 253.794 221.366C254.687 221.379 254.901 220.253 254.869 219.552C254.761 217.19 253.532 214.605 251.84 212.967Z" fill="#F5CAAE"/>
</g>
</g>
<defs>
<clipPath id="clip0_450_1255">
<rect width="402" height="358" fill="white"/>
</clipPath>
</defs>
</svg>
